<svg width="46" height="16" viewBox="0 0 46 16" fill="none" xmlns="http://www.w3.org/2000/svg">
<path d="M0.284424 15.1812V0.559105H6.07611C6.61286 0.559105 7.20155 0.593734 7.84219 0.662992C8.50014 0.73225 9.13212 0.88808 9.73812 1.13048C10.3441 1.37289 10.8376 1.7538 11.2185 2.27324C11.6167 2.79267 11.8159 3.51122 11.8159 4.42889C11.8159 4.98295 11.7033 5.49373 11.4782 5.96122C11.2705 6.42871 10.8722 6.81829 10.2835 7.12995C9.71215 7.42429 8.88972 7.59744 7.81622 7.64938V7.7273C9.06286 7.76192 10.0238 7.94373 10.6991 8.2727C11.3743 8.58436 11.8418 8.99991 12.1016 9.51934C12.3613 10.0388 12.4911 10.6188 12.4911 11.2594C12.4911 12.1944 12.2834 12.9303 11.8678 13.467C11.4523 13.9865 10.9155 14.3761 10.2576 14.6358C9.59961 14.8782 8.90703 15.034 8.17982 15.1033C7.46993 15.1552 6.81198 15.1812 6.20597 15.1812H0.284424ZM2.88159 6.63648H5.76445C6.37046 6.63648 6.93318 6.60186 7.45261 6.5326C7.98936 6.46334 8.41357 6.29885 8.72523 6.03913C9.03689 5.7621 9.19272 5.32058 9.19272 4.71458C9.19272 4.07394 9.02823 3.61511 8.69926 3.33808C8.3876 3.06105 7.97205 2.8879 7.45261 2.81864C6.93318 2.74939 6.37046 2.71476 5.76445 2.71476H2.88159V6.63648ZM2.90757 13.0515H5.9982C6.67346 13.0515 7.29678 13.0082 7.86816 12.9216C8.43954 12.8351 8.89837 12.6446 9.24466 12.3503C9.59095 12.0386 9.7641 11.5538 9.7641 10.8958C9.7641 10.2206 9.58229 9.72712 9.21869 9.41546C8.85509 9.08648 8.37894 8.87871 7.79025 8.79214C7.20155 8.70556 6.55226 8.66228 5.84237 8.66228H2.90757V13.0515Z" fill="#0CBF94"/>
<path d="M0.284424 15.1812V0.559105H6.07611C6.61286 0.559105 7.20155 0.593734 7.84219 0.662992C8.50014 0.73225 9.13212 0.88808 9.73812 1.13048C10.3441 1.37289 10.8376 1.7538 11.2185 2.27324C11.6167 2.79267 11.8159 3.51122 11.8159 4.42889C11.8159 4.98295 11.7033 5.49373 11.4782 5.96122C11.2705 6.42871 10.8722 6.81829 10.2835 7.12995C9.71215 7.42429 8.88972 7.59744 7.81622 7.64938V7.7273C9.06286 7.76192 10.0238 7.94373 10.6991 8.2727C11.3743 8.58436 11.8418 8.99991 12.1016 9.51934C12.3613 10.0388 12.4911 10.6188 12.4911 11.2594C12.4911 12.1944 12.2834 12.9303 11.8678 13.467C11.4523 13.9865 10.9155 14.3761 10.2576 14.6358C9.59961 14.8782 8.90703 15.034 8.17982 15.1033C7.46993 15.1552 6.81198 15.1812 6.20597 15.1812H0.284424ZM2.88159 6.63648H5.76445C6.37046 6.63648 6.93318 6.60186 7.45261 6.5326C7.98936 6.46334 8.41357 6.29885 8.72523 6.03913C9.03689 5.7621 9.19272 5.32058 9.19272 4.71458C9.19272 4.07394 9.02823 3.61511 8.69926 3.33808C8.3876 3.06105 7.97205 2.8879 7.45261 2.81864C6.93318 2.74939 6.37046 2.71476 5.76445 2.71476H2.88159V6.63648ZM2.90757 13.0515H5.9982C6.67346 13.0515 7.29678 13.0082 7.86816 12.9216C8.43954 12.8351 8.89837 12.6446 9.24466 12.3503C9.59095 12.0386 9.7641 11.5538 9.7641 10.8958C9.7641 10.2206 9.58229 9.72712 9.21869 9.41546C8.85509 9.08648 8.37894 8.87871 7.79025 8.79214C7.20155 8.70556 6.55226 8.66228 5.84237 8.66228H2.90757V13.0515Z" fill="black" fill-opacity="0.3"/>
<path d="M18.0379 15.4409C16.8086 15.4409 15.8043 15.1812 15.0252 14.6617C14.2634 14.125 13.692 13.4497 13.3111 12.6359C12.9475 11.8049 12.757 10.9305 12.7397 10.0128C12.7224 8.93931 12.9215 7.98701 13.337 7.15592C13.7699 6.30751 14.3759 5.64956 15.1551 5.18207C15.9515 4.69726 16.8865 4.45486 17.96 4.45486C18.9123 4.45486 19.7607 4.66263 20.5052 5.07818C21.2671 5.49373 21.8731 6.08242 22.3232 6.84426C22.7734 7.58878 23.0072 8.47182 23.0245 9.49337C23.0245 9.528 23.0245 9.62323 23.0245 9.77906C23.0245 9.93489 23.0245 10.0647 23.0245 10.1686H15.2589C15.2589 11.1556 15.5013 11.9174 15.9861 12.4541C16.4709 12.9736 17.1376 13.2333 17.986 13.2333C18.6439 13.2333 19.1893 13.0688 19.6222 12.7398C20.0724 12.4109 20.3407 11.978 20.4273 11.4412H22.9985C22.8773 12.5667 22.3925 13.519 21.5441 14.2981C20.6957 15.06 19.527 15.4409 18.0379 15.4409ZM15.3369 8.97394H20.3754C20.358 8.85274 20.3148 8.66228 20.2455 8.40256C20.1936 8.14284 20.081 7.87447 19.9079 7.59744C19.752 7.32041 19.5096 7.08666 19.1807 6.8962C18.8517 6.70574 18.4275 6.61051 17.9081 6.61051C17.2155 6.61051 16.6874 6.75769 16.3238 7.05203C15.9775 7.32906 15.7264 7.65804 15.5706 8.03896C15.4321 8.40256 15.3542 8.71422 15.3369 8.97394Z" fill="#0CBF94"/>
<path d="M18.0379 15.4409C16.8086 15.4409 15.8043 15.1812 15.0252 14.6617C14.2634 14.125 13.692 13.4497 13.3111 12.6359C12.9475 11.8049 12.757 10.9305 12.7397 10.0128C12.7224 8.93931 12.9215 7.98701 13.337 7.15592C13.7699 6.30751 14.3759 5.64956 15.1551 5.18207C15.9515 4.69726 16.8865 4.45486 17.96 4.45486C18.9123 4.45486 19.7607 4.66263 20.5052 5.07818C21.2671 5.49373 21.8731 6.08242 22.3232 6.84426C22.7734 7.58878 23.0072 8.47182 23.0245 9.49337C23.0245 9.528 23.0245 9.62323 23.0245 9.77906C23.0245 9.93489 23.0245 10.0647 23.0245 10.1686H15.2589C15.2589 11.1556 15.5013 11.9174 15.9861 12.4541C16.4709 12.9736 17.1376 13.2333 17.986 13.2333C18.6439 13.2333 19.1893 13.0688 19.6222 12.7398C20.0724 12.4109 20.3407 11.978 20.4273 11.4412H22.9985C22.8773 12.5667 22.3925 13.519 21.5441 14.2981C20.6957 15.06 19.527 15.4409 18.0379 15.4409ZM15.3369 8.97394H20.3754C20.358 8.85274 20.3148 8.66228 20.2455 8.40256C20.1936 8.14284 20.081 7.87447 19.9079 7.59744C19.752 7.32041 19.5096 7.08666 19.1807 6.8962C18.8517 6.70574 18.4275 6.61051 17.9081 6.61051C17.2155 6.61051 16.6874 6.75769 16.3238 7.05203C15.9775 7.32906 15.7264 7.65804 15.5706 8.03896C15.4321 8.40256 15.3542 8.71422 15.3369 8.97394Z" fill="black" fill-opacity="0.3"/>
<path d="M30.2683 15.4409C29.6277 15.4409 29.0823 15.3457 28.6321 15.1552C28.182 14.9474 27.8097 14.705 27.5154 14.428C27.2383 14.151 27.0305 13.8999 26.892 13.6748C26.7708 13.4497 26.7016 13.3199 26.6843 13.2852H26.6323L26.1908 15.1812H23.9053V0.559105H26.6323V6.84426H26.6843C26.7016 6.79231 26.7708 6.64514 26.892 6.40274C27.0132 6.16034 27.2037 5.89196 27.4634 5.59762C27.7404 5.30327 28.104 5.05221 28.5542 4.84444C29.0217 4.61935 29.5931 4.5068 30.2683 4.5068C31.8267 4.5068 32.9521 5.00892 33.6447 6.01316C34.3372 7.0174 34.6835 8.35927 34.6835 10.0388C34.6835 11.6663 34.3372 12.9736 33.6447 13.9605C32.9694 14.9474 31.844 15.4409 30.2683 15.4409ZM29.4113 13.2073C30.1212 13.2073 30.6666 13.0602 31.0475 12.7658C31.4457 12.4541 31.7141 12.0559 31.8526 11.5711C32.0085 11.069 32.0864 10.5496 32.0864 10.0128C32.0864 9.47606 32.0085 8.97394 31.8526 8.50645C31.6968 8.02164 31.4111 7.63207 30.9956 7.33772C30.5973 7.02606 30.0433 6.87023 29.3334 6.87023C28.3638 6.87023 27.6712 7.17323 27.2556 7.77924C26.8574 8.36793 26.6583 9.11245 26.6583 10.0128C26.6583 10.9478 26.8661 11.7183 27.2816 12.3243C27.7145 12.913 28.4244 13.2073 29.4113 13.2073Z" fill="#0CBF94"/>
<path d="M30.2683 15.4409C29.6277 15.4409 29.0823 15.3457 28.6321 15.1552C28.182 14.9474 27.8097 14.705 27.5154 14.428C27.2383 14.151 27.0305 13.8999 26.892 13.6748C26.7708 13.4497 26.7016 13.3199 26.6843 13.2852H26.6323L26.1908 15.1812H23.9053V0.559105H26.6323V6.84426H26.6843C26.7016 6.79231 26.7708 6.64514 26.892 6.40274C27.0132 6.16034 27.2037 5.89196 27.4634 5.59762C27.7404 5.30327 28.104 5.05221 28.5542 4.84444C29.0217 4.61935 29.5931 4.5068 30.2683 4.5068C31.8267 4.5068 32.9521 5.00892 33.6447 6.01316C34.3372 7.0174 34.6835 8.35927 34.6835 10.0388C34.6835 11.6663 34.3372 12.9736 33.6447 13.9605C32.9694 14.9474 31.844 15.4409 30.2683 15.4409ZM29.4113 13.2073C30.1212 13.2073 30.6666 13.0602 31.0475 12.7658C31.4457 12.4541 31.7141 12.0559 31.8526 11.5711C32.0085 11.069 32.0864 10.5496 32.0864 10.0128C32.0864 9.47606 32.0085 8.97394 31.8526 8.50645C31.6968 8.02164 31.4111 7.63207 30.9956 7.33772C30.5973 7.02606 30.0433 6.87023 29.3334 6.87023C28.3638 6.87023 27.6712 7.17323 27.2556 7.77924C26.8574 8.36793 26.6583 9.11245 26.6583 10.0128C26.6583 10.9478 26.8661 11.7183 27.2816 12.3243C27.7145 12.913 28.4244 13.2073 29.4113 13.2073Z" fill="black" fill-opacity="0.3"/>
<path d="M40.3231 15.4409C39.111 15.4409 38.1068 15.2071 37.3103 14.7397C36.5139 14.2722 35.9165 13.6315 35.5183 12.8178C35.1201 11.9867 34.9209 11.043 34.9209 9.98683C34.9036 8.3939 35.3451 7.08666 36.2455 6.06511C37.1632 5.02624 38.5223 4.5068 40.3231 4.5068C42.0718 4.5068 43.3964 5.00892 44.2967 6.01316C45.2144 7.0174 45.6732 8.34196 45.6732 9.98683C45.6732 11.0084 45.4828 11.9347 45.1018 12.7658C44.7209 13.5969 44.1322 14.2549 43.3358 14.7397C42.5393 15.2071 41.5351 15.4409 40.3231 15.4409ZM40.3231 13.2073C41.0849 13.2073 41.6649 13.0428 42.0632 12.7139C42.4787 12.3849 42.7557 11.9693 42.8942 11.4672C43.0328 10.9478 43.102 10.4284 43.102 9.90892C43.102 9.37217 43.0328 8.84408 42.8942 8.32465C42.7557 7.80521 42.4787 7.38101 42.0632 7.05203C41.6649 6.72306 41.0849 6.55857 40.3231 6.55857C39.5439 6.55857 38.9465 6.73171 38.531 7.078C38.1328 7.40698 37.8557 7.83118 37.6999 8.35062C37.5614 8.85274 37.4921 9.37217 37.4921 9.90892C37.4921 10.4284 37.5614 10.9478 37.6999 11.4672C37.8557 11.9693 38.1328 12.3849 38.531 12.7139C38.9465 13.0428 39.5439 13.2073 40.3231 13.2073Z" fill="#0CBF94"/>
<path d="M40.3231 15.4409C39.111 15.4409 38.1068 15.2071 37.3103 14.7397C36.5139 14.2722 35.9165 13.6315 35.5183 12.8178C35.1201 11.9867 34.9209 11.043 34.9209 9.98683C34.9036 8.3939 35.3451 7.08666 36.2455 6.06511C37.1632 5.02624 38.5223 4.5068 40.3231 4.5068C42.0718 4.5068 43.3964 5.00892 44.2967 6.01316C45.2144 7.0174 45.6732 8.34196 45.6732 9.98683C45.6732 11.0084 45.4828 11.9347 45.1018 12.7658C44.7209 13.5969 44.1322 14.2549 43.3358 14.7397C42.5393 15.2071 41.5351 15.4409 40.3231 15.4409ZM40.3231 13.2073C41.0849 13.2073 41.6649 13.0428 42.0632 12.7139C42.4787 12.3849 42.7557 11.9693 42.8942 11.4672C43.0328 10.9478 43.102 10.4284 43.102 9.90892C43.102 9.37217 43.0328 8.84408 42.8942 8.32465C42.7557 7.80521 42.4787 7.38101 42.0632 7.05203C41.6649 6.72306 41.0849 6.55857 40.3231 6.55857C39.5439 6.55857 38.9465 6.73171 38.531 7.078C38.1328 7.40698 37.8557 7.83118 37.6999 8.35062C37.5614 8.85274 37.4921 9.37217 37.4921 9.90892C37.4921 10.4284 37.5614 10.9478 37.6999 11.4672C37.8557 11.9693 38.1328 12.3849 38.531 12.7139C38.9465 13.0428 39.5439 13.2073 40.3231 13.2073Z" fill="black" fill-opacity="0.3"/>
</svg>
