<svg width="200" height="200" viewBox="0 0 200 200" fill="none" xmlns="http://www.w3.org/2000/svg">
<g clip-path="url(#clip0_1617_121792)">
<rect width="200" height="200" rx="4" fill="white"/>
<path d="M25 91.6667H91.6667V25H25V91.6667ZM41.6667 41.6667H75V75H41.6667V41.6667Z" fill="#323232"/>
<path d="M25 175H91.6667V108.333H25V175ZM41.6667 125H75V158.333H41.6667V125Z" fill="#323232"/>
<path d="M108.334 25V91.6667H175.001V25H108.334ZM158.334 75H125.001V41.6667H158.334V75Z" fill="#323232"/>
<path d="M175.001 158.333H158.334V175H175.001V158.333Z" fill="#323232"/>
<path d="M125.001 108.333H108.334V125H125.001V108.333Z" fill="#323232"/>
<path d="M141.667 125H125V141.667H141.667V125Z" fill="#323232"/>
<path d="M125.001 141.667H108.334V158.334H125.001V141.667Z" fill="#323232"/>
<path d="M141.667 158.333H125V175H141.667V158.333Z" fill="#323232"/>
<path d="M158.333 141.667H141.666V158.334H158.333V141.667Z" fill="#323232"/>
<path d="M158.333 108.333H141.666V125H158.333V108.333Z" fill="#323232"/>
<path d="M175.001 125H158.334V141.667H175.001V125Z" fill="#323232"/>
</g>
<defs>
<clipPath id="clip0_1617_121792">
<rect width="200" height="200" rx="4" fill="white"/>
</clipPath>
</defs>
</svg>
