<svg width="672" height="579" viewBox="0 0 672 579" fill="none" xmlns="http://www.w3.org/2000/svg">
<g id="No Results">
<g id="circle">
<path id="Stroke 1" d="M22.4253 265.939V271.927" stroke="#D2D8DF" stroke-width="1.94318" stroke-linecap="round"/>
<g id="Group 8">
<path id="Stroke 2" d="M9.64819 269.186L14.2968 274.222" stroke="#D2D8DF" stroke-width="1.94318" stroke-linecap="round"/>
<path id="Stroke 4" d="M4.21179 282.592H10.7848" stroke="#D2D8DF" stroke-width="1.94318" stroke-linecap="round"/>
<path id="Stroke 6" d="M9.11646 296.236L13.765 291.199" stroke="#D2D8DF" stroke-width="1.94318" stroke-linecap="round"/>
</g>
<path id="Stroke 9" d="M22.4253 297.872V291.885" stroke="#D2D8DF" stroke-width="1.94318" stroke-linecap="round"/>
<path id="Stroke 10" d="M31.9066 293.884L28.114 289.893" stroke="#D2D8DF" stroke-width="1.94318" stroke-linecap="round"/>
<path id="Stroke 11" d="M39.4917 283.904H33.8029" stroke="#D2D8DF" stroke-width="1.94318" stroke-linecap="round"/>
<path id="Stroke 12" d="M35.699 269.936L31.9065 273.927" stroke="#D2D8DF" stroke-width="1.94318" stroke-linecap="round"/>
<path id="Stroke 13" d="M327.725 4.5V8.49148" stroke="#D2D8DF" stroke-width="1.94318" stroke-linecap="round"/>
<path id="Stroke 15" d="M316.347 16.4766H320.14" stroke="#D2D8DF" stroke-width="1.94318" stroke-linecap="round"/>
<path id="Stroke 16" d="M327.725 28.4485V24.457" stroke="#D2D8DF" stroke-width="1.94318" stroke-linecap="round"/>
<path id="Stroke 17" d="M337.206 16.4766H333.414" stroke="#D2D8DF" stroke-width="1.94318" stroke-linecap="round"/>
<path id="Stroke 18" d="M107.757 172.143V178.13" stroke="#D2D8DF" stroke-width="1.94318" stroke-linecap="round"/>
<path id="Stroke 19" d="M90.6909 190.102H96.3797" stroke="#D2D8DF" stroke-width="1.94318" stroke-linecap="round"/>
<path id="Stroke 20" d="M107.757 206.067V200.08" stroke="#D2D8DF" stroke-width="1.94318" stroke-linecap="round"/>
<path id="Stroke 21" d="M122.928 190.102H117.239" stroke="#D2D8DF" stroke-width="1.94318" stroke-linecap="round"/>
<g id="Group 42">
<path id="Stroke 22" d="M515.937 389.754C520.469 389.754 524.144 393.623 524.144 398.394C524.144 403.166 520.469 407.033 515.937 407.033C511.406 407.033 507.73 403.166 507.73 398.394" stroke="#D2D8DF" stroke-width="1.94318" stroke-linecap="round"/>
<path id="Fill 26" fill-rule="evenodd" clip-rule="evenodd" d="M553.498 311.369C558.371 309.769 565.841 303.497 567.57 296.748C569.138 302.714 575.711 309.769 581.642 310.303C574.966 312.79 568.583 320.181 567.57 325.987C566.881 320.069 558.053 312.231 553.498 311.369Z" fill="#EBECEE"/>
<path id="Fill 28" fill-rule="evenodd" clip-rule="evenodd" d="M53.283 387.091C55.7203 386.291 59.4535 383.155 60.318 379.781C61.102 382.762 64.3877 386.291 67.3531 386.559C64.0159 387.801 60.8251 391.497 60.318 394.4C59.9735 391.441 55.5593 387.521 53.283 387.091Z" fill="#EBECEE"/>
<path id="Fill 30" fill-rule="evenodd" clip-rule="evenodd" d="M98.513 109.467C98.513 113.168 95.6635 116.166 92.1492 116.166C88.6333 116.166 85.7855 113.168 85.7855 109.467C85.7855 105.767 88.6333 102.768 92.1492 102.768C95.6635 102.768 98.513 105.767 98.513 109.467Z" fill="#D1D8DF"/>
<path id="Fill 32" fill-rule="evenodd" clip-rule="evenodd" d="M523.456 127.459C523.456 133.643 518.693 138.656 512.82 138.656C506.944 138.656 502.182 133.643 502.182 127.459C502.182 121.275 506.944 116.262 512.82 116.262C518.693 116.262 523.456 121.275 523.456 127.459Z" fill="#EBECEE"/>
<path id="Fill 34" fill-rule="evenodd" clip-rule="evenodd" d="M670.788 97.1185C670.788 102.025 667.012 106.001 662.353 106.001C657.692 106.001 653.915 102.025 653.915 97.1185C653.915 92.2122 657.692 88.2363 662.353 88.2363C667.012 88.2363 670.788 92.2122 670.788 97.1185Z" fill="#EBECEE"/>
<path id="Stroke 36" fill-rule="evenodd" clip-rule="evenodd" d="M217.446 511.949C217.446 515.042 215.065 517.548 212.127 517.548C209.19 517.548 206.809 515.042 206.809 511.949C206.809 508.856 209.19 506.35 212.127 506.35C215.065 506.35 217.446 508.856 217.446 511.949Z" stroke="#D2D8DF" stroke-width="1.94318" stroke-linecap="round"/>
<path id="Stroke 38" fill-rule="evenodd" clip-rule="evenodd" d="M214.281 66.4298C214.281 70.1311 211.432 73.1291 207.917 73.1291C204.403 73.1291 201.554 70.1311 201.554 66.4298C201.554 62.7302 204.403 59.7305 207.917 59.7305C211.432 59.7305 214.281 62.7302 214.281 66.4298Z" stroke="#D2D8DF" stroke-width="1.94318" stroke-linecap="round"/>
<path id="Stroke 40" fill-rule="evenodd" clip-rule="evenodd" d="M376.609 573.952C372.542 575.581 367.991 573.43 366.444 569.151C364.897 564.87 366.938 560.078 371.007 558.451C375.071 556.822 379.623 558.971 381.17 563.252C382.718 567.533 380.675 572.324 376.609 573.952Z" stroke="#D2D8DF" stroke-width="1.94318" stroke-linecap="round"/>
</g>
</g>
<g id="search">
<g id="documents">
<path id="Fill 1" fill-rule="evenodd" clip-rule="evenodd" d="M374.186 415.621H218.683C207.738 415.621 198.779 406.164 198.779 394.606V161.219C198.779 149.661 207.738 140.209 218.683 140.209H374.186C385.135 140.209 394.095 149.661 394.095 161.219V394.606C394.095 406.164 385.135 415.621 374.186 415.621Z" fill="#E0E2EE"/>
<path id="Fill 3" fill-rule="evenodd" clip-rule="evenodd" d="M360.912 425.599H205.409C194.464 425.599 185.505 416.142 185.505 404.585V171.198C185.505 159.64 194.464 150.188 205.409 150.188H360.912C371.861 150.188 380.82 159.64 380.82 171.198V404.585C380.82 416.142 371.861 425.599 360.912 425.599Z" fill="#E8EBF2"/>
<path id="Fill 5" fill-rule="evenodd" clip-rule="evenodd" d="M348 433.477H192.175C181.207 433.477 172.23 424.059 172.23 412.549V180.128C172.23 168.618 181.207 159.205 192.175 159.205H348C358.972 159.205 367.949 168.618 367.949 180.128V412.549C367.949 424.059 358.972 433.477 348 433.477Z" fill="#D8DBEA"/>
<path id="Fill 8" fill-rule="evenodd" clip-rule="evenodd" d="M348 433.477H192.175C181.207 433.477 172.23 424.059 172.23 412.549V180.128C172.23 168.618 181.207 159.205 192.175 159.205H348C358.972 159.205 367.949 168.618 367.949 180.128V412.549C367.949 424.059 358.972 433.477 348 433.477Z" fill="#F1F2F7"/>
<path id="Fill 11" fill-rule="evenodd" clip-rule="evenodd" d="M325.54 230.019H210.445C207.158 230.019 204.467 227.325 204.467 224.034C204.467 220.739 207.158 218.045 210.445 218.045H325.54C328.827 218.045 331.517 220.739 331.517 224.034C331.517 227.325 328.827 230.019 325.54 230.019Z" fill="#E0E2EE"/>
<path id="Fill 13" fill-rule="evenodd" clip-rule="evenodd" d="M325.54 265.937H210.445C207.158 265.937 204.467 263.243 204.467 259.952C204.467 256.657 207.158 253.963 210.445 253.963H325.54C328.827 253.963 331.517 256.657 331.517 259.952C331.517 263.243 328.827 265.937 325.54 265.937Z" fill="#E0E2EE"/>
<path id="Fill 15" fill-rule="evenodd" clip-rule="evenodd" d="M325.54 301.861H210.445C207.158 301.861 204.467 299.167 204.467 295.876C204.467 292.585 207.158 289.887 210.445 289.887H325.54C328.827 289.887 331.517 292.585 331.517 295.876C331.517 299.167 328.827 301.861 325.54 301.861Z" fill="#E0E2EE"/>
<path id="Fill 17" fill-rule="evenodd" clip-rule="evenodd" d="M325.54 337.785H210.445C207.158 337.785 204.467 335.091 204.467 331.8C204.467 328.504 207.158 325.811 210.445 325.811H325.54C328.827 325.811 331.517 328.504 331.517 331.8C331.517 335.091 328.827 337.785 325.54 337.785Z" fill="#E0E2EE"/>
<path id="Fill 19" fill-rule="evenodd" clip-rule="evenodd" d="M270.523 373.709H210.47C207.169 373.709 204.467 371.015 204.467 367.724C204.467 364.428 207.169 361.734 210.47 361.734H270.523C273.824 361.734 276.526 364.428 276.526 367.724C276.526 371.015 273.824 373.709 270.523 373.709Z" fill="#E0E2EE"/>
</g>
<g id="search_2">
<path id="Fill 21" fill-rule="evenodd" clip-rule="evenodd" d="M391.733 327.279C368.719 351.497 333.09 354.229 307.223 335.531C303.917 333.099 300.771 330.367 297.837 327.279C296.326 325.695 294.903 324.06 293.561 322.338C290.878 318.901 288.528 315.234 286.602 311.446C283.21 305.047 280.903 298.258 279.643 291.24C275.58 269.232 281.656 245.542 297.837 228.52C314.056 211.448 336.569 205.095 357.484 209.33C364.149 210.696 370.606 213.123 376.686 216.653C380.291 218.725 383.727 221.198 386.999 224.021C388.63 225.428 390.184 226.931 391.69 228.52C394.629 231.608 397.264 234.914 399.532 238.397C417.306 265.611 414.704 303.108 391.733 327.279Z" fill="white" fill-opacity="0.1"/>
<path id="Fill 23" fill-rule="evenodd" clip-rule="evenodd" d="M385.293 322.511C361.35 347.715 322.548 347.71 298.6 322.511C274.683 297.339 274.683 256.497 298.631 231.298C322.548 206.126 361.35 206.126 385.267 231.298C409.21 256.497 409.21 297.339 385.293 322.511ZM397.582 218.351C366.848 186.005 317.045 186.005 286.312 218.351C255.583 250.692 255.556 303.14 286.285 335.485C314.256 364.914 358.098 367.569 388.934 343.405C391.945 341.042 394.846 338.393 397.613 335.485C400.375 332.574 402.892 329.521 405.133 326.351C428.092 293.893 425.548 247.785 397.582 218.351Z" fill="#E0E2EE"/>
<path id="Fill 25" fill-rule="evenodd" clip-rule="evenodd" d="M518.532 457.414L517.241 458.772C508.705 467.76 494.727 467.76 486.186 458.772L407.368 375.819L439.714 341.777L518.532 424.73C527.072 433.718 527.072 448.425 518.532 457.414Z" fill="#021D17"/>
<path id="Fill 27" fill-rule="evenodd" clip-rule="evenodd" d="M406.832 323.812L430.123 348.325L413.588 365.723L390.302 341.21C393.375 338.799 396.33 336.095 399.158 333.129C401.977 330.162 404.546 327.047 406.832 323.812Z" fill="#E0E2EE"/>
<path id="Fill 29" fill-rule="evenodd" clip-rule="evenodd" d="M517.352 423.709L485.213 457.53L479.427 451.436L511.562 417.615L517.352 423.709Z" fill="#E6F6F5"/>
<path id="Fill 31" fill-rule="evenodd" clip-rule="evenodd" d="M441.501 342.95L408.482 377.702L403.576 372.539L436.595 337.787L441.501 342.95Z" fill="#E6F6F5"/>
<path id="Fill 33" fill-rule="evenodd" clip-rule="evenodd" d="M369.443 222.63L288.465 307.851C285.416 302.099 283.342 295.995 282.214 289.685L352.182 216.047C358.173 217.28 363.977 219.457 369.443 222.63Z" fill="white" fill-opacity="0.5"/>
<path id="Fill 35" fill-rule="evenodd" clip-rule="evenodd" d="M395.991 242.885L308.445 329.803C305.31 327.63 302.326 325.186 299.543 322.423C298.111 321 296.756 319.542 295.488 318.001L384.1 230.016C385.652 231.279 387.125 232.624 388.553 234.046C391.336 236.809 393.84 239.768 395.991 242.885Z" fill="white" fill-opacity="0.5"/>
</g>
</g>
</g>
</svg>
