<svg width="48" height="46" viewBox="0 0 48 46" fill="none" xmlns="http://www.w3.org/2000/svg">
<path d="M45.8447 27.3701C48.032 24.8691 48.032 21.1309 45.8447 18.6299C44.6504 17.2643 44.0679 15.4624 44.2344 13.6558C44.5384 10.356 42.3517 7.33145 39.1201 6.59742C37.3477 6.19482 35.8157 5.0734 34.8913 3.50841C33.2043 0.652046 29.6505 -0.519774 26.6023 0.789166C24.9407 1.50267 23.0583 1.50232 21.3967 0.788825C18.3488 -0.519972 14.7987 0.639993 13.1079 3.49373C12.1826 5.0556 10.6523 6.16866 8.88098 6.56612C5.65065 7.29092 3.46258 10.3289 3.76552 13.6257C3.93144 15.4312 3.34674 17.2468 2.15553 18.6138C-0.0272208 21.1186 -0.0359716 24.8647 2.15122 27.3656C3.34872 28.7349 3.93153 30.5444 3.76508 32.3558C3.46166 35.6577 5.65254 38.6929 8.88603 39.4273C10.6537 39.8289 12.1814 40.9425 13.1054 42.502C14.7964 45.3562 18.3484 46.5134 21.3935 45.1969C23.0572 44.4776 24.9442 44.4755 26.6097 45.1906C29.6541 46.498 33.2022 45.3349 34.891 42.4844C35.8165 40.9224 37.3462 39.8055 39.1166 39.4034C42.3502 38.6689 44.5385 35.6449 44.2343 32.343C44.0678 30.5364 44.6504 28.7357 45.8447 27.3701ZM23.9852 29.5592C21.5339 32.0172 17.5525 32.0173 15.1011 29.5595L12.398 26.8493C11.4469 25.8957 11.4479 24.352 12.4003 23.3997C13.3549 22.445 14.9032 22.4467 15.8559 23.4034L16.8343 24.386C18.3287 25.8869 20.7583 25.8874 22.2534 24.3872L31.4669 15.1423C32.4199 14.186 33.968 14.1847 34.9226 15.1393C35.8751 16.0918 35.8761 17.6359 34.9249 18.5897L23.9852 29.5592Z" fill="#0AA970"/>
</svg>
